<svg width="12" height="12" viewBox="0 0 12 12" fill="none" xmlns="http://www.w3.org/2000/svg">
<path d="M11.8024 4.35438C11.7272 4.13388 11.5283 3.97813 11.2961 3.96004L7.97053 3.69579L6.53145 0.510209C6.43753 0.300793 6.22928 0.166626 6.00003 0.166626C5.77078 0.166626 5.56253 0.300793 5.46861 0.509626L4.02953 3.69579L0.703945 3.96004C0.475862 3.97813 0.279278 4.12804 0.201695 4.34329C0.124112 4.55854 0.178945 4.79946 0.342862 4.95929L2.80045 7.35504L1.93128 11.1187C1.87761 11.3515 1.97153 11.5935 2.16811 11.7295C2.26845 11.7983 2.38395 11.8333 2.50003 11.8333C2.61261 11.8333 2.72578 11.8006 2.82378 11.7353L6.00003 9.61779L9.17628 11.7353C9.37928 11.8706 9.64586 11.8654 9.8442 11.7213C10.0414 11.5772 10.1283 11.3246 10.0612 11.0901L8.99428 7.35679L11.6403 4.97563C11.8135 4.81929 11.8771 4.57546 11.8024 4.35438Z" fill="#FFBA08"/>
</svg>
